<svg width="186" height="29" viewBox="0 0 186 29" fill="none" xmlns="http://www.w3.org/2000/svg">
<path d="M14.92 28L9.106 17.686L6.514 21.214V28H0.0880001V1.45H6.514V12.754L14.65 1.45H21.418L12.85 12.97L21.922 28H14.92ZM24.6777 28V8.884H31.1037V11.512C31.6797 10.576 32.4297 9.844 33.3537 9.316C34.2897 8.776 35.3937 8.506 36.6657 8.506C37.4337 8.506 38.0277 8.56 38.4477 8.668C38.8677 8.776 39.1317 8.86 39.2397 8.92L38.2857 14.59C38.1777 14.53 37.9377 14.44 37.5657 14.32C37.1937 14.188 36.7317 14.122 36.1797 14.122C34.9077 14.122 33.8997 14.386 33.1557 14.914C32.4237 15.442 31.8957 16.12 31.5717 16.948C31.2597 17.764 31.1037 18.598 31.1037 19.45V28H24.6777ZM61.7307 21.952C61.6227 23.068 61.1487 24.124 60.3087 25.12C59.4687 26.104 58.2927 26.908 56.7807 27.532C55.2687 28.144 53.4507 28.45 51.3267 28.45C49.1427 28.45 47.2467 28.03 45.6387 27.19C44.0427 26.338 42.8007 25.162 41.9127 23.662C41.0367 22.162 40.5987 20.434 40.5987 18.478C40.5987 16.486 41.0487 14.746 41.9487 13.258C42.8487 11.758 44.1027 10.594 45.7107 9.766C47.3307 8.926 49.2027 8.506 51.3267 8.506C53.5227 8.506 55.4187 8.932 57.0147 9.784C58.6107 10.624 59.8407 11.812 60.7047 13.348C61.5687 14.884 62.0007 16.69 62.0007 18.766C62.0007 19.09 61.9887 19.39 61.9647 19.666C61.9527 19.93 61.9407 20.134 61.9287 20.278H47.1327C47.3727 21.382 47.8587 22.234 48.5907 22.834C49.3227 23.434 50.3247 23.734 51.5967 23.734C52.9287 23.734 53.8767 23.542 54.4407 23.158C55.0167 22.762 55.3347 22.36 55.3947 21.952H61.7307ZM51.4167 13.15C49.1847 13.15 47.7807 14.188 47.2047 16.264H55.4847C55.4007 15.496 55.0347 14.788 54.3867 14.14C53.7507 13.48 52.7607 13.15 51.4167 13.15ZM71.4451 28.414C69.3691 28.414 67.6531 27.928 66.2971 26.956C64.9411 25.972 64.2631 24.58 64.2631 22.78C64.2631 21.4 64.6531 20.278 65.4331 19.414C66.2131 18.55 67.2271 17.896 68.4751 17.452C69.7231 17.008 71.0431 16.72 72.4351 16.588C74.4511 16.396 75.8251 16.228 76.5571 16.084C77.3011 15.928 77.6731 15.664 77.6731 15.292V15.256C77.6731 14.68 77.3671 14.212 76.7551 13.852C76.1551 13.492 75.3271 13.312 74.2711 13.312C72.0151 13.312 70.8871 14.122 70.8871 15.742H64.5511C64.5511 14.17 64.9831 12.85 65.8471 11.782C66.7231 10.702 67.8991 9.886 69.3751 9.334C70.8511 8.782 72.5011 8.506 74.3251 8.506C76.0411 8.506 77.6431 8.764 79.1311 9.28C80.6191 9.796 81.8191 10.582 82.7311 11.638C83.6551 12.694 84.1171 14.038 84.1171 15.67V23.518C84.1171 24.034 84.1291 24.532 84.1531 25.012C84.1771 25.48 84.2431 25.906 84.3511 26.29C84.4831 26.722 84.6451 27.088 84.8371 27.388C85.0411 27.688 85.2031 27.892 85.3231 28H79.0411C78.9451 27.904 78.8011 27.718 78.6091 27.442C78.4171 27.166 78.2611 26.848 78.1411 26.488C78.0811 26.332 78.0331 26.176 77.9971 26.02C77.2651 26.788 76.3171 27.382 75.1531 27.802C74.0011 28.21 72.7651 28.414 71.4451 28.414ZM73.2811 23.752C73.9771 23.752 74.6491 23.626 75.2971 23.374C75.9451 23.11 76.4911 22.69 76.9351 22.114C77.3911 21.538 77.6611 20.77 77.7451 19.81C77.1211 19.966 76.4611 20.098 75.7651 20.206C75.0811 20.314 74.4091 20.398 73.7491 20.458C72.7291 20.566 71.9671 20.74 71.4631 20.98C70.9591 21.22 70.7071 21.616 70.7071 22.168C70.7071 23.224 71.5651 23.752 73.2811 23.752ZM97.4748 28.432C96.6948 28.432 95.8788 28.366 95.0268 28.234C94.1868 28.114 93.4008 27.862 92.6688 27.478C91.9368 27.082 91.3368 26.506 90.8688 25.75C90.4128 24.982 90.1848 23.962 90.1848 22.69V13.744H85.8468V8.884H86.5128C87.3528 8.884 88.0128 8.848 88.4928 8.776C88.9848 8.704 89.3508 8.524 89.5908 8.236C89.8428 7.948 90.0048 7.504 90.0768 6.904C90.1488 6.292 90.1848 5.446 90.1848 4.366V2.602H96.6288V8.884H102.029V13.744H96.6288V20.962C96.6288 21.73 96.7188 22.366 96.8988 22.87C97.0788 23.362 97.5468 23.608 98.3028 23.608C98.7228 23.608 99.1188 23.566 99.4908 23.482C99.8628 23.398 100.139 23.32 100.319 23.248V27.964C100.055 28.072 99.6768 28.174 99.1848 28.27C98.7048 28.378 98.1348 28.432 97.4748 28.432ZM108.029 6.202C107.057 6.202 106.211 5.95 105.491 5.446C104.771 4.942 104.411 4.228 104.411 3.304C104.411 2.368 104.771 1.654 105.491 1.162C106.211 0.657998 107.057 0.405998 108.029 0.405998C108.989 0.405998 109.829 0.657998 110.549 1.162C111.281 1.654 111.647 2.368 111.647 3.304C111.647 4.24 111.281 4.96 110.549 5.464C109.829 5.956 108.989 6.202 108.029 6.202ZM104.861 28V8.884H111.215V28H104.861ZM133.106 8.884L127.508 28H118.814L113.108 8.884H119.732L123.17 24.04L126.464 8.884H133.106ZM154.93 21.952C154.822 23.068 154.348 24.124 153.508 25.12C152.668 26.104 151.492 26.908 149.98 27.532C148.468 28.144 146.65 28.45 144.526 28.45C142.342 28.45 140.446 28.03 138.838 27.19C137.242 26.338 136 25.162 135.112 23.662C134.236 22.162 133.798 20.434 133.798 18.478C133.798 16.486 134.248 14.746 135.148 13.258C136.048 11.758 137.302 10.594 138.91 9.766C140.53 8.926 142.402 8.506 144.526 8.506C146.722 8.506 148.618 8.932 150.214 9.784C151.81 10.624 153.04 11.812 153.904 13.348C154.768 14.884 155.2 16.69 155.2 18.766C155.2 19.09 155.188 19.39 155.164 19.666C155.152 19.93 155.14 20.134 155.128 20.278H140.332C140.572 21.382 141.058 22.234 141.79 22.834C142.522 23.434 143.524 23.734 144.796 23.734C146.128 23.734 147.076 23.542 147.64 23.158C148.216 22.762 148.534 22.36 148.594 21.952H154.93ZM144.616 13.15C142.384 13.15 140.98 14.188 140.404 16.264H148.684C148.6 15.496 148.234 14.788 147.586 14.14C146.95 13.48 145.96 13.15 144.616 13.15ZM166.39 28.45C165.262 28.45 164.158 28.318 163.078 28.054C161.998 27.79 161.02 27.394 160.144 26.866C159.268 26.326 158.572 25.654 158.056 24.85C157.54 24.046 157.282 23.11 157.282 22.042V21.79H163.654V22.006C163.654 22.606 163.912 23.038 164.428 23.302C164.956 23.566 165.67 23.698 166.57 23.698C166.978 23.698 167.392 23.656 167.812 23.572C168.244 23.476 168.604 23.326 168.892 23.122C169.192 22.918 169.342 22.648 169.342 22.312C169.342 21.796 169.03 21.43 168.406 21.214C167.782 20.998 166.744 20.77 165.292 20.53C164.452 20.398 163.576 20.2 162.664 19.936C161.764 19.672 160.924 19.318 160.144 18.874C159.364 18.43 158.734 17.866 158.254 17.182C157.774 16.486 157.534 15.646 157.534 14.662C157.534 13.306 157.942 12.172 158.758 11.26C159.574 10.348 160.654 9.664 161.998 9.208C163.354 8.74 164.842 8.506 166.462 8.506C167.986 8.506 169.42 8.764 170.764 9.28C172.108 9.796 173.194 10.534 174.022 11.494C174.862 12.454 175.282 13.594 175.282 14.914V15.13H168.982V14.932C168.982 14.32 168.706 13.882 168.154 13.618C167.602 13.342 167.026 13.204 166.426 13.204C166.078 13.204 165.7 13.246 165.292 13.33C164.884 13.402 164.536 13.534 164.248 13.726C163.96 13.918 163.816 14.188 163.816 14.536C163.816 15.016 164.182 15.376 164.914 15.616C165.646 15.856 166.582 16.066 167.722 16.246C168.466 16.366 169.282 16.54 170.17 16.768C171.07 16.984 171.928 17.308 172.744 17.74C173.572 18.16 174.244 18.724 174.76 19.432C175.288 20.14 175.552 21.04 175.552 22.132C175.552 23.284 175.282 24.262 174.742 25.066C174.214 25.87 173.506 26.524 172.618 27.028C171.73 27.52 170.74 27.88 169.648 28.108C168.568 28.336 167.482 28.45 166.39 28.45ZM182.083 28.558C181.183 28.558 180.415 28.24 179.779 27.604C179.155 26.968 178.843 26.2 178.843 25.3C178.843 24.412 179.155 23.65 179.779 23.014C180.415 22.378 181.183 22.06 182.083 22.06C182.983 22.06 183.745 22.378 184.369 23.014C185.005 23.65 185.323 24.412 185.323 25.3C185.323 26.2 185.005 26.968 184.369 27.604C183.745 28.24 182.983 28.558 182.083 28.558Z" fill="#0E1129"/>
</svg>
